REM DIRINDEX 1\2,1\3,1\4,1\5
REM DIRNAME cjc004,folder01,folder02,folder03,folder04
TITLE ""
FILE "1Q_t_0582-0591.mp3" MP3
  TRACK 01 AUDIO
    TITLE "3:cjc004_2648"
    INDEX 01 00:00:00
  TRACK 02 AUDIO
    TITLE "0:"
    INDEX 01 00:01:03
  TRACK 03 AUDIO
    TITLE "4:cjc004_2649"
    INDEX 01 00:01:30
  TRACK 04 AUDIO
    TITLE "0:"
    INDEX 01 00:02:55
  TRACK 05 AUDIO
    TITLE "5:cjc004_2650"
    INDEX 01 00:03:08
  TRACK 06 AUDIO
    TITLE "0:"
    INDEX 01 00:08:03
  TRACK 07 AUDIO
    TITLE "3:cjc004_2651"
    INDEX 01 00:08:60
  TRACK 08 AUDIO
    TITLE "0:"
    INDEX 01 00:10:06
  TRACK 09 AUDIO
    TITLE "4:cjc004_2652"
    INDEX 01 00:10:29
  TRACK 10 AUDIO
    TITLE "0:"
    INDEX 01 00:11:54
  TRACK 11 AUDIO
    TITLE "5:cjc004_2653"
    INDEX 01 00:12:07
  TRACK 12 AUDIO
    TITLE "0:"
    INDEX 01 00:16:36
  TRACK 13 AUDIO
    TITLE "3:cjc004_2654"
    INDEX 01 00:17:18
  TRACK 14 AUDIO
    TITLE "0:"
    INDEX 01 00:18:46
  TRACK 15 AUDIO
    TITLE "4:cjc004_2655"
    INDEX 01 00:18:70
  TRACK 16 AUDIO
    TITLE "0:"
    INDEX 01 00:20:12
  TRACK 17 AUDIO
    TITLE "5:cjc004_2656"
    INDEX 01 00:20:37
  TRACK 18 AUDIO
    TITLE "0:"
    INDEX 01 00:25:43
  TRACK 19 AUDIO
    TITLE "3:cjc004_2657"
    INDEX 01 00:26:18
  TRACK 20 AUDIO
    TITLE "0:"
    INDEX 01 00:27:55
  TRACK 21 AUDIO
    TITLE "4:cjc004_2658"
    INDEX 01 00:28:06
  TRACK 22 AUDIO
    TITLE "0:"
    INDEX 01 00:29:70
  TRACK 23 AUDIO
    TITLE "5:cjc004_2659"
    INDEX 01 00:30:24
  TRACK 24 AUDIO
    TITLE "0:"
    INDEX 01 00:35:06
  TRACK 25 AUDIO
    TITLE "3:cjc004_2660"
    INDEX 01 00:35:59
  TRACK 26 AUDIO
    TITLE "0:"
    INDEX 01 00:37:18
  TRACK 27 AUDIO
    TITLE "4:cjc004_2661"
    INDEX 01 00:37:50
  TRACK 28 AUDIO
    TITLE "0:"
    INDEX 01 00:39:09
  TRACK 29 AUDIO
    TITLE "5:cjc004_2662"
    INDEX 01 00:39:35
  TRACK 30 AUDIO
    TITLE "0:"
    INDEX 01 00:43:21
  TRACK 31 AUDIO
    TITLE "3:cjc004_2663"
    INDEX 01 00:44:07
  TRACK 32 AUDIO
    TITLE "0:"
    INDEX 01 00:45:33
  TRACK 33 AUDIO
    TITLE "4:cjc004_2664"
    INDEX 01 00:45:65
  TRACK 34 AUDIO
    TITLE "0:"
    INDEX 01 00:47:09
  TRACK 35 AUDIO
    TITLE "5:cjc004_2665"
    INDEX 01 00:47:36
  TRACK 36 AUDIO
    TITLE "0:"
    INDEX 01 00:52:00
  TRACK 37 AUDIO
    TITLE "3:cjc004_2666"
    INDEX 01 00:52:57
  TRACK 38 AUDIO
    TITLE "0:"
    INDEX 01 00:53:57
  TRACK 39 AUDIO
    TITLE "4:cjc004_2667"
    INDEX 01 00:54:13
  TRACK 40 AUDIO
    TITLE "0:"
    INDEX 01 00:55:24
  TRACK 41 AUDIO
    TITLE "5:cjc004_2668"
    INDEX 01 00:55:53
  TRACK 42 AUDIO
    TITLE "0:"
    INDEX 01 01:00:72
  TRACK 43 AUDIO
    TITLE "3:cjc004_2669"
    INDEX 01 01:01:50
  TRACK 44 AUDIO
    TITLE "0:"
    INDEX 01 01:02:57
  TRACK 45 AUDIO
    TITLE "4:cjc004_2670"
    INDEX 01 01:03:14
  TRACK 46 AUDIO
    TITLE "0:"
    INDEX 01 01:04:33
  TRACK 47 AUDIO
    TITLE "5:cjc004_2671"
    INDEX 01 01:04:62
  TRACK 48 AUDIO
    TITLE "0:"
    INDEX 01 01:10:00
  TRACK 49 AUDIO
    TITLE "3:cjc004_2672"
    INDEX 01 01:10:51
  TRACK 50 AUDIO
    TITLE "0:"
    INDEX 01 01:11:56
  TRACK 51 AUDIO
    TITLE "4:cjc004_2673"
    INDEX 01 01:12:05
  TRACK 52 AUDIO
    TITLE "0:"
    INDEX 01 01:13:49
  TRACK 53 AUDIO
    TITLE "5:cjc004_2674"
    INDEX 01 01:14:00
  TRACK 54 AUDIO
    TITLE "0:"
    INDEX 01 01:18:45
  TRACK 55 AUDIO
    TITLE "3:cjc004_2675"
    INDEX 01 01:19:25
  TRACK 56 AUDIO
    TITLE "0:"
    INDEX 01 01:20:42
  TRACK 57 AUDIO
    TITLE "4:cjc004_2676"
    INDEX 01 01:20:67
  TRACK 58 AUDIO
    TITLE "0:"
    INDEX 01 01:22:21
  TRACK 59 AUDIO
    TITLE "5:cjc004_2677"
    INDEX 01 01:22:42
  TRACK 60 AUDIO
    TITLE "0:"
    INDEX 01 01:26:58
